ply
format ascii 1.0
comment VCGLIB generated
element vertex 252
property float x
property float y
property float z
element face 500
property list uchar int vertex_indices
end_header
0.775298 0.079177 0.386224 
0.744892 0.095545 0.283983 
0.718889 0.087974 0.371222 
0.615939 0.411367 0.219746 
0.682207 0.418465 0.198995 
0.768419 0.01785 0.315141 
0.727019 0.020975 0.395188 
0.614259 0.457695 0.178221 
0.667601 0.393166 0.105742 
0.653152 0.081667 0.209168 
0.668198 0.049097 0.320768 
-0.077752 0.7537 0.032052 
-0.594488 0.489488 0.177962 
-0.054946 0.853884 0.03174 
0.545382 0.343633 0.103 
-0.556651 0.442084 0.267076 
-0.58738 0.513369 0.271267 
0.668466 -0.006769 0.223691 
-0.106548 0.848382 -0.007241 
-0.610173 0.09032 0.325504 
0.402021 0.589766 0.019546 
0.617087 0.320337 0.12732 
-0.524577 0.482012 0.209144 
0.711583 -0.342215 0.335332 
0.746414 -0.378145 0.31206 
-0.131385 0.810673 0.039722 
0.716693 0.041979 0.147217 
0.4168 0.651742 -0.017928 
-0.056521 0.716365 -0.044431 
-0.648997 0.397235 0.208903 
0.456393 0.604742 0.007227 
0.341691 0.565985 -0.044858 
-0.541354 0.118503 0.31319 
0.632175 0.016902 0.16227 
0.566181 -0.335871 0.227747 
-0.581535 0.318453 0.126296 
-0.569436 0.120029 0.220881 
0.578278 0.388192 0.033349 
0.426115 0.256252 0.039751 
0.676984 -0.31058 0.273068 
0.551672 0.270112 0.036694 
-0.650238 0.265015 0.152232 
0.59064 0.2709 0.001292 
0.03457 0.209068 0.111875 
0.512702 0.326633 0.00552 
-0.614905 0.145728 0.270684 
-0.105877 0.049751 0.189408 
0.584523 0.29426 -0.023807 
0.641772 0.076808 0.120166 
-0.078833 0.762639 -0.089399 
-0.581482 0.025739 0.249358 
0.65742 -0.388847 0.19128 
0.54233 0.048657 0.131082 
-0.131845 0.272145 0.079839 
-0.28069 0.04439 0.154579 
0.453716 0.307383 -0.041353 
0.019804 0.025693 0.180385 
-0.102376 0.761426 -0.342779 
-0.652214 0.341458 0.126522 
0.139454 0.04891 0.128923 
0.527124 -0.009282 0.122534 
0.571864 -0.003436 0.0408 
-0.138853 0.728357 -0.119985 
-0.163656 0.192863 0.143921 
-0.560071 0.22368 0.12412 
0.667452 -0.004659 0.125953 
0.507579 -0.34899 0.173165 
-0.276317 0.162832 0.113395 
0.488603 -0.390896 0.196174 
0.101411 -0.087851 0.151678 
0.321674 0.176808 -0.009508 
0.600342 0.048677 0.056311 
-0.61085 -0.02339 0.149828 
0.404103 0.578352 -0.134444 
-0.586706 0.296224 0.164098 
0.281986 0.246179 -0.014912 
0.414808 0.515097 -0.093825 
-0.161415 0.715899 -0.070959 
0.614221 -0.428614 0.245155 
-0.162439 0.305185 0.012961 
-0.135734 -0.090693 0.184242 
0.300711 0.201968 0.008101 
-0.645219 0.072977 0.157055 
-0.012483 -0.116498 0.175 
0.468349 -0.036791 0.042562 
-0.654171 0.045884 0.232209 
0.414883 0.043881 0.032057 
0.377003 -0.280131 0.161344 
0.740216 -0.335378 0.261429 
0.027015 0.286857 0.016465 
0.171476 0.176961 0.03914 
0.325646 0.446469 -0.178167 
-0.081984 0.648517 -0.143781 
0.338877 0.585079 -0.14255 
0.226882 0.132206 -0.014452 
0.526609 0.294885 -0.050257 
-0.364756 0.111957 0.038431 
-0.098325 0.112816 -0.281157 
0.295878 0.24075 -0.06151 
-0.242129 -0.098348 0.142692 
0.464877 0.215655 -0.037103 
-0.564115 0.190901 0.075551 
0.242482 0.037779 0.036529 
0.181283 -0.098479 0.097612 
0.303945 -0.214372 0.115982 
0.50426 -0.41238 0.120955 
0.533418 -0.36003 0.132404 
0.357389 0.476243 -0.210758 
-0.660683 -0.015117 0.104993 
0.392064 -0.014593 0.057856 
0.342169 0.219815 -0.068924 
0.292967 -0.140509 0.063421 
0.440232 -0.396508 0.154685 
-0.429923 0.211536 -0.005059 
-0.34536 0.157711 0.026925 
0.240961 -0.008067 0.035395 
0.403301 0.021351 -0.019337 
0.348262 -0.215362 0.086 
-0.550304 0.288996 0.032673 
0.286631 -0.257574 0.116021 
0.213038 -0.071871 0.071686 
0.386264 -0.04456 0.003613 
0.07598 -0.227966 0.083214 
-0.28566 0.232002 0.039121 
0.196251 0.155686 -0.098955 
0.015722 0.329927 0.027911 
-0.028938 -0.20201 0.12962 
0.389023 -0.366977 0.106873 
0.362241 -0.281142 0.050611 
-0.330715 -0.049389 0.091186 
-0.326824 0.188325 -0.029203 
0.014047 0.291114 -0.071644 
-0.17307 -0.194497 0.109103 
-0.442817 0.16933 0.029387 
-0.248553 0.27773 -0.039807 
0.21335 -0.127416 -0.003757 
-0.062684 0.305915 -0.082981 
-0.30611 -0.23241 0.142375 
-0.57525 0.003968 0.130597 
0.264271 -0.242864 0.050581 
0.280555 0.49749 -0.209616 
-0.467033 0.14197 -0.030827 
-0.584564 0.236748 0.022339 
-0.249801 -0.38395 0.152793 
0.118222 0.331026 -0.243378 
-0.081902 0.402972 -0.173017 
0.295991 0.458424 -0.162331 
-0.580292 -0.072759 0.067332 
-0.448128 0.195772 -0.051845 
-0.097965 -0.343589 0.114315 
-0.354819 -0.014628 0.000395 
0.173079 -0.172894 0.041834 
-0.11178 0.593747 -0.204589 
-0.339459 0.104183 -0.061407 
0.099747 0.234031 -0.112315 
-0.620622 0.037904 0.098425 
0.244498 -0.038087 -0.056256 
-0.159229 0.376842 -0.192976 
-0.109838 -0.227865 0.071582 
0.25159 0.060322 -0.050901 
0.209307 0.087891 -0.111035 
-0.151756 0.567866 -0.204488 
-0.50898 0.008789 0.020025 
0.268633 0.44822 -0.274913 
-0.07571 0.253346 -0.147091 
-0.146961 -0.468059 0.115545 
-0.578238 -0.060734 -0.013032 
-0.406466 -0.215144 0.06625 
-0.439619 -0.057197 -0.025589 
-0.071566 0.39776 -0.221298 
-0.421756 -0.356136 0.104212 
-0.1585 0.257629 -0.130482 
0.158461 0.302368 -0.231226 
0.036976 -0.233003 -0.022383 
0.248794 0.334794 -0.23378 
-0.241131 -0.147066 -0.038393 
-0.204141 0.143246 -0.156588 
-0.288505 0.375138 0.158818 
-0.002032 0.238522 -0.153635 
-0.018437 -0.410337 -0.002761 
0.087666 0.091082 -0.182157 
-0.328645 -0.08629 0.010858 
0.168079 -0.079134 -0.126327 
-0.327632 -0.001277 -0.061604 
-0.321301 -0.512181 0.108363 
0.05389 0.184191 -0.171155 
-0.292579 -0.025789 -0.089439 
-0.379608 -0.16992 0.001159 
-0.290625 -0.131327 0.041322 
-0.109892 0.398437 -0.256553 
0.157316 0.256124 -0.274291 
-0.2955 -0.093958 -0.043893 
0.083733 -0.149332 -0.330735 
-0.137238 0.354966 -0.237363 
0.093519 -0.280965 -0.070442 
-0.090267 -0.227465 -0.026577 
-0.446748 -0.017365 -0.07782 
-0.445326 -0.281871 -0.019977 
-0.170248 -0.170696 -0.063794 
-0.468972 -0.097506 -0.062927 
0.111486 0.300298 -0.306686 
-0.560834 -0.001936 -0.033718 
0.053461 -0.167602 -0.10968 
-0.150406 -0.116745 -0.119656 
-0.054661 -0.491636 0.044091 
0.078492 -0.099785 -0.144847 
0.22061 0.350919 -0.301001 
-0.022777 0.026884 -0.18785 
-0.0293 -0.308945 -0.004289 
-0.087969 -0.287467 -0.097195 
-0.009162 -0.206144 -0.072763 
0.041729 -0.293699 -0.119083 
-0.399306 -0.092125 -0.097475 
-0.157994 -0.588196 0.056214 
-0.464997 -0.055129 -0.120738 
-0.396837 -0.527237 0.036292 
-0.45599 -0.410282 -0.020968 
0.1136 -0.190824 -0.070412 
0.088036 -0.262536 -0.175447 
-0.39288 -0.37911 -0.114611 
0.091521 -0.33681 -0.129614 
-0.25462 -0.202313 -0.096886 
-0.388035 -0.233633 -0.0664 
0.133362 -0.302168 -0.122304 
-0.376604 -0.559173 -0.032932 
-0.079889 -0.563516 -0.045512 
-0.390065 -0.482239 -0.099995 
-0.248438 -0.336564 -0.15178 
-0.18786 -0.627444 -0.052001 
-0.266627 -0.618342 -0.003151 
-0.065295 -0.4598 -0.102859 
0.090996 -0.367263 -0.193057 
0.164714 -0.362778 -0.242299 
-0.158574 -0.429397 -0.163954 
0.240388 -0.417 -0.215925 
-0.287684 -0.548913 -0.134096 
-0.175674 -0.562983 -0.129058 
0.303589 -0.62365 -0.214632 
0.252853 -0.529443 -0.211075 
0.248673 -0.618166 -0.247037 
0.190878 -0.520471 -0.256278 
0.236483 -0.482237 -0.283329 
0.348219 -0.581481 -0.281733 
0.258775 -0.547233 -0.307727 
0.360861 -0.629108 -0.238438 
0.28223 -0.657412 -0.298816 
0.408087 -0.750903 -0.253975 
0.413858 -0.724019 -0.304364 
0.377502 -0.757097 -0.313591 
0.329416 -0.730518 -0.262998 
0.347613 -0.657009 -0.323446 
0.153406 0.221134 -0.060742 
3 211 220 194 
3 223 194 220 
3 173 211 194 
3 231 220 211 
3 203 207 205 
3 180 205 207 
3 210 203 205 
3 186 207 203 
3 222 187 221 
3 175 221 187 
3 227 222 221 
3 197 187 222 
3 212 191 181 
3 188 181 191 
3 199 212 181 
3 186 191 212 
3 168 199 181 
3 214 212 199 
3 196 168 150 
3 181 150 168 
3 183 196 150 
3 162 168 196 
3 153 183 150 
3 214 196 183 
3 186 214 183 
3 201 196 214 
3 187 197 167 
3 170 167 197 
3 188 187 167 
3 219 197 222 
3 147 199 168 
3 138 168 162 
3 201 162 196 
3 166 199 147 
3 138 147 168 
3 214 166 201 
3 108 201 166 
3 199 166 214 
3 155 162 201 
3 170 215 184 
3 229 184 215 
3 143 170 184 
3 216 215 170 
3 197 216 170 
3 224 215 216 
3 219 216 197 
3 137 167 170 
3 108 166 147 
3 200 206 190 
3 174 190 206 
3 185 200 190 
3 163 206 200 
3 217 194 223 
3 218 217 223 
3 173 194 217 
3 232 218 223 
3 202 217 218 
3 238 223 220 
3 218 231 211 
3 240 220 231 
3 218 211 210 
3 173 210 211 
3 202 218 210 
3 205 202 210 
3 232 231 218 
3 179 225 230 
3 236 230 225 
3 208 179 230 
3 204 225 179 
3 149 179 208 
3 209 208 230 
3 195 208 209 
3 233 209 230 
3 36 45 32 
3 19 32 45 
3 138 36 32 
3 82 45 36 
3 50 138 32 
3 19 50 32 
3 72 138 50 
3 12 22 35 
3 15 35 22 
3 58 12 35 
3 16 22 12 
3 35 15 74 
3 41 74 15 
3 113 35 74 
3 63 46 43 
3 56 43 46 
3 53 63 43 
3 54 46 63 
3 77 125 11 
3 57 11 125 
3 25 77 11 
3 161 125 77 
3 18 77 25 
3 13 25 11 
3 83 56 46 
3 59 43 56 
3 69 59 56 
3 90 43 59 
3 77 18 62 
3 49 62 18 
3 161 77 62 
3 13 49 18 
3 25 13 18 
3 28 49 13 
3 11 28 13 
3 92 49 28 
3 68 23 34 
3 39 34 23 
3 66 68 34 
3 78 23 68 
3 24 23 78 
3 112 78 68 
3 88 39 23 
3 106 34 39 
3 76 30 20 
3 27 20 30 
3 91 76 20 
3 73 30 76 
3 75 38 44 
3 40 44 38 
3 55 75 44 
3 81 38 75 
3 60 65 33 
3 17 33 65 
3 52 60 33 
3 84 65 60 
3 48 52 33 
3 109 60 52 
3 14 44 40 
3 100 40 38 
3 93 31 27 
3 20 27 31 
3 73 93 27 
3 140 31 93 
3 184 213 165 
3 204 165 213 
3 143 184 165 
3 229 213 184 
3 183 153 177 
3 130 177 153 
3 186 183 177 
3 214 186 212 
3 203 191 186 
3 188 175 187 
3 198 221 175 
3 191 175 188 
3 203 175 191 
3 186 177 176 
3 171 176 177 
3 207 186 176 
3 203 198 175 
3 209 221 198 
3 210 198 203 
3 225 204 213 
3 149 165 204 
3 192 207 176 
3 195 198 210 
3 209 198 195 
3 173 195 210 
3 158 208 195 
3 158 195 173 
3 179 149 204 
3 180 207 192 
3 171 192 176 
3 193 157 189 
3 161 189 157 
3 164 193 189 
3 171 157 193 
3 171 193 164 
3 169 164 189 
3 136 164 169 
3 152 169 189 
3 122 158 173 
3 164 192 171 
3 24 88 23 
3 106 39 88 
3 73 27 30 
3 40 21 14 
3 3 14 21 
3 42 21 40 
3 226 216 219 
3 235 226 219 
3 224 216 226 
3 236 228 235 
3 229 235 228 
3 233 236 235 
3 225 228 236 
3 235 229 224 
3 215 224 229 
3 226 235 224 
3 213 229 228 
3 227 233 235 
3 230 236 233 
3 227 235 219 
3 222 227 219 
3 209 233 227 
3 246 244 237 
3 238 237 244 
3 249 246 237 
3 247 244 246 
3 239 249 237 
3 248 246 249 
3 238 239 237 
3 245 249 239 
3 242 238 244 
3 247 242 244 
3 241 238 242 
3 241 234 238 
3 223 238 234 
3 232 234 241 
3 243 241 242 
3 223 234 232 
3 240 232 241 
3 240 239 238 
3 220 240 238 
3 243 239 240 
3 243 240 241 
3 240 231 232 
3 248 247 246 
3 245 248 249 
3 250 247 248 
3 242 247 250 
3 245 250 248 
3 243 242 250 
3 243 250 245 
3 243 245 239 
3 37 14 7 
3 3 7 14 
3 8 37 7 
3 44 14 37 
3 33 9 48 
3 1 48 9 
3 10 9 33 
3 2 1 9 
3 26 48 1 
3 33 17 10 
3 6 10 17 
3 2 9 10 
3 51 88 24 
3 42 8 21 
3 4 21 8 
3 47 8 42 
3 5 26 1 
3 71 48 26 
3 65 5 17 
3 6 17 5 
3 26 5 65 
3 61 26 65 
3 4 7 3 
3 4 3 21 
3 0 1 2 
3 6 2 10 
3 0 6 5 
3 4 8 7 
3 47 37 8 
3 0 5 1 
3 0 2 6 
3 78 51 24 
3 106 88 51 
3 105 51 78 
3 95 44 37 
3 100 42 40 
3 61 71 26 
3 116 71 61 
3 84 61 65 
3 86 48 71 
3 86 52 48 
3 95 37 47 
3 100 95 47 
3 100 47 42 
3 29 16 12 
3 58 29 12 
3 15 16 29 
3 22 16 15 
3 41 15 29 
3 85 19 45 
3 57 28 11 
3 91 20 31 
3 97 89 131 
3 251 131 89 
3 136 97 131 
3 79 89 97 
3 89 53 43 
3 90 89 43 
3 79 53 89 
3 123 63 53 
3 67 54 63 
3 80 46 54 
3 155 36 138 
3 110 55 95 
3 44 95 55 
3 100 110 95 
3 98 55 110 
3 134 79 97 
3 122 69 83 
3 56 83 69 
3 126 122 83 
3 103 69 122 
3 80 83 46 
3 123 53 79 
3 126 83 80 
3 132 126 80 
3 67 63 123 
3 134 123 79 
3 99 80 54 
3 96 54 67 
3 114 67 123 
3 129 99 54 
3 132 80 99 
3 114 96 67 
3 129 54 96 
3 133 113 74 
3 118 35 113 
3 58 35 118 
3 148 118 113 
3 85 72 50 
3 147 138 72 
3 41 64 74 
3 133 74 64 
3 101 64 41 
3 142 101 41 
3 133 64 101 
3 142 58 118 
3 142 41 58 
3 29 58 41 
3 19 85 50 
3 108 72 85 
3 82 85 45 
3 108 85 82 
3 36 155 82 
3 108 82 155 
3 70 110 100 
3 107 76 91 
3 174 107 91 
3 73 76 107 
3 163 73 107 
3 206 163 107 
3 93 73 163 
3 140 93 163 
3 144 140 163 
3 116 61 84 
3 121 116 84 
3 152 161 62 
3 92 28 57 
3 145 92 57 
3 157 57 125 
3 102 90 59 
3 103 120 69 
3 59 69 120 
3 111 120 103 
3 102 59 120 
3 152 49 92 
3 251 89 90 
3 75 251 90 
3 94 90 102 
3 159 94 102 
3 81 90 94 
3 115 102 120 
3 156 115 120 
3 109 102 115 
3 111 103 104 
3 119 104 103 
3 117 111 104 
3 119 87 104 
3 117 104 87 
3 112 87 119 
3 75 90 81 
3 70 81 94 
3 127 112 119 
3 68 87 112 
3 117 87 66 
3 68 66 87 
3 106 117 66 
3 81 70 38 
3 100 38 70 
3 102 109 86 
3 52 86 109 
3 159 102 86 
3 106 66 34 
3 105 78 112 
3 127 105 112 
3 152 62 49 
3 149 132 143 
3 137 143 132 
3 165 149 143 
3 158 132 149 
3 188 137 132 
3 170 143 137 
3 130 123 134 
3 177 130 134 
3 114 123 130 
3 158 126 132 
3 158 122 126 
3 134 97 171 
3 157 171 97 
3 177 134 171 
3 161 157 125 
3 145 57 157 
3 97 145 157 
3 136 145 97 
3 169 145 136 
3 178 136 131 
3 189 161 152 
3 145 152 92 
3 154 131 251 
3 151 103 122 
3 217 151 122 
3 119 103 151 
3 139 119 151 
3 135 139 151 
3 127 119 139 
3 124 154 251 
3 144 131 154 
3 156 111 135 
3 128 135 111 
3 217 156 135 
3 120 111 156 
3 121 115 156 
3 117 128 111 
3 139 135 128 
3 182 160 156 
3 159 156 160 
3 217 182 156 
3 180 160 182 
3 116 156 159 
3 94 159 160 
3 121 156 116 
3 86 116 159 
3 146 140 144 
3 200 144 163 
3 148 142 118 
3 109 84 60 
3 116 86 71 
3 98 75 55 
3 146 91 31 
3 106 51 105 
3 121 84 109 
3 251 75 98 
3 124 98 110 
3 140 146 31 
3 174 91 146 
3 172 146 144 
3 154 172 144 
3 174 146 172 
3 190 174 172 
3 174 206 107 
3 108 155 201 
3 147 72 108 
3 155 138 162 
3 141 142 148 
3 141 133 101 
3 142 141 101 
3 96 133 141 
3 130 148 113 
3 114 113 133 
3 133 96 114 
3 130 113 114 
3 153 96 141 
3 150 129 96 
3 153 150 96 
3 181 129 150 
3 188 132 99 
3 129 188 99 
3 181 188 129 
3 178 180 192 
3 182 202 205 
3 122 173 217 
3 164 178 192 
3 185 180 178 
3 200 185 178 
3 154 180 185 
3 182 205 180 
3 217 202 182 
3 154 185 190 
3 144 200 178 
3 131 144 178 
3 172 154 190 
3 136 178 164 
3 124 160 180 
3 158 149 208 
3 227 221 209 
3 228 225 213 
3 152 145 169 
3 135 151 217 
3 124 180 154 
3 94 160 124 
3 98 124 251 
3 127 139 128 
3 70 94 124 
3 110 70 124 
3 121 109 115 
3 106 128 117 
3 105 127 128 
3 105 128 106 
3 148 130 153 
3 167 137 188 
3 148 153 141 
