ply
format ascii 1.0
comment VCGLIB generated
element vertex 252
property float x
property float y
property float z
element face 500
property list uchar int vertex_indices
end_header
0.678164 -0.324078 -0.027821 
0.646253 -0.33317 0.025971 
0.703015 -0.2673 -0.0651 
0.64365 -0.332788 -0.130576 
0.612543 -0.405556 -0.038187 
0.7509 -0.107919 -0.015513 
0.75476 -0.026006 -0.063505 
0.710005 -0.152297 0.054647 
0.648397 -0.148854 0.112553 
0.556385 -0.435151 -0.099865 
0.720768 -0.12935 -0.124279 
0.556104 -0.436201 0.023119 
0.70184 -0.058356 -0.145139 
0.533231 -0.335519 -0.121919 
0.746262 0.00108 -0.003621 
0.706203 0.114439 -0.098225 
0.490622 -0.524549 0.007535 
0.440708 -0.500562 -0.074945 
0.710143 -0.031682 0.088083 
0.481429 -0.483029 0.035596 
0.604257 -0.249242 -0.149954 
0.497481 -0.524887 -0.027958 
0.59104 0.005972 0.147868 
0.577935 -0.313637 0.061541 
0.685907 0.160964 -0.004766 
0.510084 -0.275948 0.042995 
0.367731 -0.572743 0.082655 
0.348135 -0.588627 0.006657 
0.500638 -0.287767 -0.094073 
0.338747 -0.625424 0.051024 
0.480776 -0.260655 -0.038276 
0.295048 -0.561474 0.091922 
0.428863 -0.449291 0.02458 
0.623473 0.107587 0.121666 
0.323886 -0.537801 0.025275 
0.510446 -0.096207 -0.117239 
0.630042 0.135316 -0.161083 
0.409398 -0.448399 -0.045975 
0.566781 0.1071 -0.182632 
0.220646 -0.699237 0.035709 
0.628211 0.255044 -0.117767 
0.309841 -0.629865 0.014518 
0.596054 -0.053794 -0.156938 
0.201932 -0.671589 -0.061687 
0.607274 0.249792 0.041962 
0.252037 -0.598301 0.157622 
0.42229 0.094468 -0.188419 
0.263355 -0.659054 -0.002591 
0.543022 -0.077794 0.126073 
0.245364 -0.609972 0.066534 
0.465793 -0.114931 -0.023944 
0.246414 -0.649875 0.120352 
0.101913 -0.689635 0.055844 
0.449301 0.04561 0.153145 
0.186134 -0.622423 0.166217 
0.180762 -0.619796 0.192202 
0.197608 -0.642864 0.199473 
0.422702 -0.000231 0.108312 
0.060185 -0.748317 -0.102682 
0.516535 0.125355 0.161862 
0.209034 -0.692137 -0.070254 
0.530715 0.237844 -0.174672 
0.077423 -0.71961 -0.151423 
0.408218 -0.032534 0.057565 
0.384243 -0.03539 -0.00489 
0.153156 -0.669417 0.16285 
0.59042 0.292986 -0.03057 
0.396036 -0.030158 -0.073455 
0.070839 -0.61907 0.250566 
0.436194 0.319901 0.100988 
0.08809 -0.707379 -0.113885 
0.121129 -0.721634 0.025874 
0.546664 0.211449 0.132291 
0.079044 -0.663383 0.141202 
0.407204 0.256969 -0.177826 
0.477761 0.35629 -0.097114 
0.513629 0.483441 -0.187176 
-0.0682 -0.694979 -0.19654 
0.289123 0.063095 0.17757 
0.061392 -0.680154 0.15127 
0.463022 0.524477 -0.20417 
0.081212 -0.7139 0.073445 
0.224535 -0.005429 -0.036886 
-0.013342 -0.711405 -0.096646 
-0.002252 -0.742205 -0.020084 
0.453625 0.520772 -0.175745 
0.000249 -0.770483 -0.016172 
-0.062301 -0.74556 -0.105524 
0.346889 0.447923 -0.096583 
0.397249 0.389733 0.011364 
0.425071 0.376036 -0.115165 
-0.080217 -0.742927 -0.050996 
0.002485 -0.636429 0.182425 
0.027019 -0.6225 0.181889 
0.002805 -0.246468 -0.211476 
-0.153128 -0.655077 -0.210775 
0.030544 -0.221862 -0.17707 
0.07009 0.039637 0.062188 
0.412704 0.560242 -0.188627 
0.318828 0.131852 0.206285 
0.352769 0.478255 -0.154476 
0.369885 0.28533 0.172097 
0.275915 0.054112 -0.142928 
0.286099 -0.005564 0.103064 
-0.147736 -0.725349 -0.125338 
0.30298 0.425777 -0.135411 
0.018497 -0.566324 0.28513 
-0.20529 -0.678226 -0.226379 
0.198434 0.503638 -0.024632 
0.045307 -0.197075 -0.192298 
0.309195 0.228641 0.209869 
0.330811 0.50673 -0.157223 
0.076862 0.109404 -0.145427 
0.192353 0.259194 -0.203454 
0.235849 0.364163 -0.178666 
0.14972 0.191539 -0.19612 
0.192556 0.449854 0.110758 
0.003898 -0.095938 -0.116539 
0.082624 0.171917 0.217641 
-0.019398 -0.131091 -0.113571 
0.065666 0.044111 -0.047552 
0.159311 0.371729 0.191556 
0.070245 0.067488 0.133218 
0.275203 0.467874 -0.087048 
0.02211 0.179866 0.533504 
-0.056499 0.067793 0.15355 
-0.043991 -0.147169 -0.16204 
-0.158137 -0.680054 -0.15022 
-0.09442 -0.144075 -0.133043 
0.025515 0.029816 -0.05414 
0.110495 0.507852 0.053104 
-0.110821 0.006028 -0.061075 
0.221554 0.482247 -0.122831 
-0.136095 -0.117854 -0.140736 
0.04847 0.285589 -0.227603 
0.121677 0.39011 -0.207821 
0.042713 0.461956 0.138253 
0.014219 0.183077 0.232832 
-0.017807 0.166229 0.400706 
0.062451 0.277266 0.233499 
-0.088706 -0.037561 -0.126856 
-0.021976 0.157013 0.509463 
0.035811 0.477919 -0.165174 
-0.035411 0.214275 0.24376 
-0.058901 0.02601 0.066299 
-0.088852 0.208371 0.392797 
-0.069174 0.170968 0.374333 
-0.048634 0.17657 0.52077 
-0.179854 -0.012507 -0.087495 
-0.178505 -0.002594 0.094915 
-0.160843 0.010512 -0.134013 
-0.156408 -0.01567 0.00515 
-0.099264 0.185957 0.402563 
-0.085274 0.161925 0.234372 
-0.112095 0.064601 -0.147279 
-0.009962 0.393331 0.198676 
-0.125122 0.17903 0.324261 
0.045686 0.527746 -0.077002 
-0.1212 0.223658 0.293162 
-0.079367 0.532252 -0.001286 
-0.141866 0.268425 0.247003 
-0.214059 0.145194 0.25473 
-0.306382 -0.143413 0.062427 
-0.127622 0.49348 0.105588 
-0.287494 -0.075996 0.131509 
-0.14543 0.190141 -0.230686 
-0.248348 -0.043657 -0.121102 
-0.193844 0.035343 0.154442 
-0.118681 0.399079 0.196773 
-0.185749 0.222205 0.379579 
-0.203341 0.193823 0.300939 
-0.220083 0.252012 0.245559 
-0.110014 0.50998 -0.116485 
-0.070562 0.393109 -0.229223 
-0.427071 -0.189302 0.128038 
-0.217433 0.040383 -0.177023 
-0.357862 -0.137056 -0.096051 
-0.496376 -0.274442 0.068534 
-0.378542 -0.069757 -0.181449 
-0.256762 0.096002 0.217423 
-0.171605 0.28533 -0.252099 
-0.29883 0.413315 0.158425 
-0.306105 0.210988 -0.262413 
-0.342132 0.111812 -0.257977 
-0.466484 -0.199054 -0.104549 
-0.318056 0.224808 0.234825 
-0.491236 -0.268704 -0.009158 
-0.483397 -0.142803 -0.015739 
-0.393973 -0.072571 0.19885 
-0.199357 0.423212 -0.200705 
-0.229424 0.500425 0.048597 
-0.499089 -0.205379 -0.14928 
-0.536284 -0.191177 -0.065546 
-0.261041 0.497609 -0.059257 
-0.529728 -0.229738 0.028043 
-0.46907 -0.206793 -0.076482 
-0.566585 -0.235443 0.132004 
-0.281573 0.445655 -0.156273 
-0.424719 0.014102 0.214622 
-0.564517 -0.082426 0.014131 
-0.447399 -0.018347 -0.221555 
-0.314981 0.325377 -0.244593 
-0.564172 -0.277045 -0.0487 
-0.399035 0.271518 -0.22757 
-0.357024 0.320345 0.18772 
-0.453781 0.141999 -0.237023 
-0.441252 0.249258 0.167177 
-0.366411 0.461301 0.017131 
-0.58602 -0.177469 0.110493 
-0.591849 -0.188235 -0.008703 
-0.358661 0.429928 0.117798 
-0.58376 -0.154016 -0.233123 
-0.599516 -0.117858 0.087846 
-0.62397 -0.220463 0.06447 
-0.538543 -0.078701 0.166753 
-0.389618 0.424318 -0.090783 
-0.489787 0.117101 0.198018 
-0.513087 0.012552 -0.220687 
-0.444629 0.335528 -0.152309 
-0.466046 0.331677 0.113013 
-0.672498 -0.20308 0.078104 
-0.649578 -0.303868 -0.12633 
-0.5203 0.152457 -0.183738 
-0.592807 0.005024 0.163424 
-0.495765 0.348855 0.02915 
-0.503496 0.221535 -0.177257 
-0.758401 -0.356334 -0.102473 
-0.641174 -0.069849 0.126648 
-0.506194 0.325696 -0.064718 
-0.713158 -0.333744 -0.027054 
-0.574707 0.006536 -0.210776 
-0.589942 0.166106 0.115959 
-0.678341 -0.140639 0.088632 
-0.662833 -0.223189 -0.204137 
-0.648186 -0.14957 -0.219246 
-0.641961 -0.209421 -0.180558 
-0.566583 0.213391 -0.103753 
-0.803477 -0.353089 -0.026283 
-0.600035 0.212997 -0.004055 
-0.838684 0.169018 0.123634 
-0.773119 -0.208051 -0.159751 
-0.637803 0.066509 -0.139826 
-0.703029 0.00851 -0.120378 
-0.839887 -0.419129 -0.179625 
-0.719231 -0.001537 0.050782 
-0.696518 0.063748 -0.050609 
-0.634637 0.153525 0.055487 
-0.814056 -0.343994 -0.112556 
-0.881923 -0.216482 0.039024 
-0.664442 -0.426966 -0.133124 
-0.815065 -0.192429 -0.086629 
-0.308925 -0.136092 -0.001091 
3 179 125 153 
3 122 153 125 
3 161 179 153 
3 167 125 179 
3 156 161 153 
3 171 179 161 
3 101 110 72 
3 59 72 110 
3 69 101 72 
3 121 110 101 
3 116 101 69 
3 89 116 69 
3 121 101 116 
3 160 143 139 
3 137 139 143 
3 155 160 139 
3 158 143 160 
3 145 143 158 
3 170 158 160 
3 163 130 159 
3 157 159 130 
3 190 163 159 
3 136 130 163 
3 168 136 163 
3 116 130 136 
3 155 136 168 
3 181 168 163 
3 169 161 156 
3 137 156 153 
3 171 170 160 
3 168 171 160 
3 161 170 171 
3 185 179 171 
3 170 161 169 
3 158 170 169 
3 181 163 190 
3 193 190 159 
3 171 168 181 
3 155 168 160 
3 185 171 181 
3 204 185 181 
3 198 179 185 
3 210 181 190 
3 207 210 190 
3 204 181 210 
3 206 185 204 
3 219 204 210 
3 224 219 210 
3 206 204 219 
3 231 206 219 
3 139 110 121 
3 136 121 116 
3 118 110 139 
3 155 139 121 
3 155 121 136 
3 108 130 116 
3 137 138 146 
3 141 146 138 
3 156 137 146 
3 145 138 137 
3 145 137 143 
3 156 146 152 
3 141 152 146 
3 169 156 152 
3 175 154 150 
3 140 150 154 
3 148 175 150 
3 165 154 175 
3 182 165 175 
3 112 154 165 
3 148 150 133 
3 126 133 150 
3 128 148 133 
3 140 126 150 
3 94 133 126 
3 94 128 133 
3 131 148 128 
3 129 140 154 
3 151 148 131 
3 119 131 128 
3 117 126 140 
3 96 119 128 
3 129 131 119 
3 109 126 117 
3 129 117 140 
3 94 126 109 
3 119 109 117 
3 96 109 119 
3 129 119 117 
3 73 79 92 
3 68 92 79 
3 93 73 92 
3 81 79 73 
3 81 73 52 
3 54 52 73 
3 84 81 52 
3 79 81 65 
3 71 65 81 
3 68 79 65 
3 86 71 81 
3 39 65 71 
3 49 52 54 
3 55 54 73 
3 51 65 39 
3 60 39 71 
3 47 52 49 
3 31 49 54 
3 41 47 49 
3 43 52 47 
3 29 51 39 
3 56 65 51 
3 39 47 41 
3 27 41 49 
3 31 34 49 
3 27 49 34 
3 32 34 31 
3 29 41 27 
3 26 51 29 
3 41 29 39 
3 16 26 29 
3 45 51 26 
3 21 29 27 
3 17 27 34 
3 19 26 16 
3 21 16 29 
3 21 27 17 
3 37 17 34 
3 32 37 34 
3 28 17 37 
3 30 37 32 
3 13 17 28 
3 30 28 37 
3 35 28 30 
3 9 17 13 
3 35 13 28 
3 9 21 17 
3 11 16 21 
3 4 21 9 
3 20 9 13 
3 3 9 20 
3 35 20 13 
3 3 4 9 
3 11 21 4 
3 10 3 20 
3 0 4 3 
3 248 237 243 
3 232 243 237 
3 249 248 243 
3 247 237 248 
3 249 250 248 
3 240 248 250 
3 242 250 249 
3 239 249 243 
3 242 240 250 
3 235 240 242 
3 234 240 235 
3 241 235 242 
3 229 221 202 
3 191 202 221 
3 213 229 202 
3 226 221 229 
3 230 234 235 
3 233 240 234 
3 211 234 230 
3 241 230 235 
3 222 230 241 
3 184 202 191 
3 233 191 221 
3 217 200 211 
3 178 211 200 
3 230 217 211 
3 205 200 217 
3 222 217 230 
3 205 217 222 
3 225 205 222 
3 183 200 205 
3 202 184 192 
3 195 192 184 
3 209 202 192 
3 176 184 191 
3 251 195 184 
3 199 192 195 
3 211 178 191 
3 176 191 178 
3 233 211 191 
3 178 200 183 
3 182 183 205 
3 175 178 183 
3 251 184 176 
3 166 176 178 
3 182 175 183 
3 166 178 175 
3 148 166 175 
3 96 128 94 
3 109 96 94 
3 247 248 240 
3 84 86 81 
3 91 86 84 
3 87 58 86 
3 71 86 58 
3 91 87 86 
3 62 58 87 
3 89 66 75 
3 40 75 66 
3 88 89 75 
3 44 66 89 
3 40 66 44 
3 69 44 89 
3 78 57 53 
3 48 53 57 
3 99 78 53 
3 103 57 78 
3 122 103 78 
3 63 57 103 
3 85 88 75 
3 123 89 88 
3 98 85 80 
3 76 80 85 
3 100 98 80 
3 88 85 98 
3 111 123 88 
3 108 89 123 
3 118 122 78 
3 97 103 122 
3 99 118 78 
3 153 122 118 
3 108 123 132 
3 111 132 123 
3 157 108 132 
3 144 122 125 
3 142 157 132 
3 130 108 157 
3 172 159 157 
3 149 125 167 
3 188 167 179 
3 142 172 157 
3 193 159 172 
3 198 188 179 
3 164 167 188 
3 197 193 172 
3 207 190 193 
3 216 198 185 
3 214 188 198 
3 215 207 193 
3 224 210 207 
3 206 216 185 
3 223 198 216 
3 215 224 207 
3 83 84 70 
3 52 70 84 
3 95 83 70 
3 91 84 83 
3 124 141 138 
3 43 70 52 
3 70 43 62 
3 60 62 43 
3 77 70 62 
3 62 60 58 
3 71 58 60 
3 47 60 43 
3 107 104 127 
3 91 127 104 
3 95 107 127 
3 77 104 107 
3 87 91 104 
3 83 127 91 
3 87 104 77 
3 95 77 107 
3 62 87 77 
3 127 83 95 
3 77 95 70 
3 142 132 135 
3 114 135 132 
3 173 142 135 
3 144 97 122 
3 129 97 144 
3 82 103 97 
3 105 132 111 
3 114 132 105 
3 74 114 105 
3 100 105 111 
3 98 111 88 
3 98 100 111 
3 90 105 100 
3 120 82 97 
3 64 103 82 
3 113 114 74 
3 90 74 105 
3 76 90 100 
3 75 74 90 
3 76 100 80 
3 63 103 64 
3 67 64 82 
3 76 75 90 
3 61 74 75 
3 85 75 76 
3 50 63 64 
3 48 57 63 
3 40 61 75 
3 46 74 61 
3 63 50 48 
3 25 48 50 
3 36 61 40 
3 30 25 50 
3 23 48 25 
3 32 23 25 
3 8 48 23 
3 40 24 15 
3 14 15 24 
3 36 40 15 
3 44 24 40 
3 231 219 224 
3 231 216 206 
3 223 216 231 
3 72 33 44 
3 24 44 33 
3 69 72 44 
3 59 33 72 
3 22 33 59 
3 53 22 59 
3 18 33 22 
3 48 22 53 
3 99 53 59 
3 99 59 110 
3 118 99 110 
3 108 116 89 
3 137 118 139 
3 137 153 118 
3 47 39 60 
3 226 237 247 
3 233 247 240 
3 229 237 226 
3 233 226 247 
3 220 237 229 
3 233 221 226 
3 211 233 234 
3 8 22 48 
3 18 22 8 
3 24 33 18 
3 7 18 8 
3 14 24 18 
3 1 7 8 
3 5 18 7 
3 244 223 231 
3 246 244 231 
3 227 223 244 
3 246 231 224 
3 238 246 224 
3 228 224 215 
3 218 228 215 
3 238 224 228 
3 223 214 198 
3 227 214 223 
3 197 215 193 
3 196 188 214 
3 188 174 164 
3 162 164 174 
3 196 174 188 
3 149 167 164 
3 173 172 142 
3 162 149 164 
3 144 125 149 
3 151 144 149 
3 189 197 172 
3 166 151 251 
3 162 251 151 
3 176 166 251 
3 148 151 166 
3 149 162 151 
3 186 251 162 
3 144 151 131 
3 180 173 134 
3 135 134 173 
3 165 180 134 
3 201 173 180 
3 115 165 134 
3 182 180 165 
3 112 129 154 
3 120 129 112 
3 115 112 165 
3 102 112 115 
3 113 115 134 
3 113 134 135 
3 208 196 214 
3 227 208 214 
3 194 196 208 
3 129 120 97 
3 112 82 120 
3 113 135 114 
3 131 129 144 
3 189 172 173 
3 177 162 174 
3 201 189 173 
3 201 197 189 
3 177 174 196 
3 218 215 197 
3 201 218 197 
3 212 208 227 
3 236 228 218 
3 236 238 228 
3 245 238 236 
3 232 227 244 
3 245 246 238 
3 245 244 246 
3 14 5 6 
3 10 6 5 
3 15 14 6 
3 18 5 14 
3 0 5 7 
3 12 15 6 
3 1 8 23 
3 74 115 113 
3 46 102 115 
3 82 112 102 
3 67 82 102 
3 74 46 115 
3 67 102 46 
3 55 73 93 
3 68 93 92 
3 106 55 93 
3 56 68 65 
3 106 68 56 
3 45 54 55 
3 35 67 46 
3 50 67 35 
3 42 35 46 
3 46 61 38 
3 36 38 61 
3 42 46 38 
3 45 56 51 
3 56 45 55 
3 31 54 45 
3 106 56 55 
3 26 31 45 
3 19 31 26 
3 20 35 42 
3 12 42 38 
3 32 31 19 
3 23 32 19 
3 25 30 32 
3 50 35 30 
3 12 20 42 
3 11 19 16 
3 23 19 11 
3 1 23 11 
3 36 12 38 
3 10 20 12 
3 15 12 36 
3 4 1 11 
3 0 1 4 
3 7 1 0 
3 2 0 3 
3 10 2 3 
3 5 0 2 
3 5 2 10 
3 6 10 12 
3 232 239 243 
3 244 249 239 
3 244 239 232 
3 220 232 237 
3 245 242 249 
3 244 245 249 
3 241 242 245 
3 236 241 245 
3 227 232 220 
3 213 220 229 
3 236 222 241 
3 225 222 236 
3 218 225 236 
3 203 205 225 
3 227 220 213 
3 209 213 202 
3 212 213 209 
3 199 209 192 
3 212 209 199 
3 201 205 203 
3 218 203 225 
3 194 186 177 
3 162 177 186 
3 196 194 177 
3 187 186 194 
3 208 187 194 
3 195 186 187 
3 64 67 50 
3 93 68 106 
3 199 195 187 
3 251 186 195 
3 212 199 187 
3 182 205 201 
3 218 201 203 
3 180 182 201 
3 147 141 124 
3 145 147 124 
3 169 141 147 
3 152 141 169 
3 145 169 147 
3 158 169 145 
3 138 145 124 
3 212 227 213 
3 187 208 212 
